<svg width="213" height="40" viewBox="0 0 213 40" fill="none" xmlns="http://www.w3.org/2000/svg">
<path d="M0.160511 39V2.63636H24.2372V8.97514H7.84872V17.6399H22.6392V23.9787H7.84872V39H0.160511ZM36.7017 39.5149C34.9616 39.5149 33.411 39.2131 32.0497 38.6094C30.6884 37.9938 29.6113 37.0883 28.8182 35.8928C28.0369 34.6854 27.6463 33.1821 27.6463 31.3828C27.6463 29.8677 27.9245 28.5952 28.4808 27.5653C29.0372 26.5355 29.7947 25.7069 30.7536 25.0795C31.7124 24.4522 32.8014 23.9787 34.0206 23.6591C35.2517 23.3395 36.5419 23.1146 37.8913 22.9844C39.4775 22.8187 40.7559 22.6648 41.7266 22.5227C42.6972 22.3688 43.4015 22.1439 43.8395 21.848C44.2775 21.5521 44.4964 21.1141 44.4964 20.5341V20.4276C44.4964 19.303 44.1413 18.433 43.4311 17.8175C42.7327 17.2019 41.7384 16.8942 40.4482 16.8942C39.0869 16.8942 38.0038 17.196 37.1989 17.7997C36.3939 18.3916 35.8613 19.1373 35.6009 20.0369L28.6051 19.4688C28.9602 17.8116 29.6586 16.3793 30.7003 15.1719C31.742 13.9527 33.0855 13.0175 34.7308 12.3665C36.388 11.7036 38.3056 11.3722 40.4837 11.3722C41.9988 11.3722 43.4489 11.5497 44.8338 11.9048C46.2306 12.2599 47.4676 12.8104 48.5447 13.5561C49.6338 14.3018 50.492 15.2607 51.1193 16.4325C51.7467 17.5926 52.0604 18.9834 52.0604 20.6051V39H44.8871V35.218H44.674C44.236 36.0703 43.6501 36.822 42.9162 37.473C42.1823 38.1122 41.3004 38.6153 40.2706 38.9822C39.2408 39.3374 38.0511 39.5149 36.7017 39.5149ZM38.8679 34.2947C39.9806 34.2947 40.9631 34.0758 41.8153 33.6378C42.6676 33.188 43.3364 32.5843 43.8217 31.8267C44.3071 31.0691 44.5497 30.2109 44.5497 29.2521V26.358C44.313 26.5118 43.9875 26.6539 43.5732 26.7841C43.1707 26.9025 42.715 27.0149 42.206 27.1214C41.697 27.2161 41.188 27.3049 40.679 27.3878C40.17 27.4588 39.7083 27.5239 39.294 27.5831C38.4063 27.7133 37.6309 27.9205 36.968 28.2045C36.3052 28.4886 35.7902 28.8733 35.4233 29.3587C35.0563 29.8321 34.8729 30.424 34.8729 31.1342C34.8729 32.1641 35.2457 32.9512 35.9915 33.4957C36.7491 34.0284 37.7079 34.2947 38.8679 34.2947ZM65.4925 23.233V39H57.9286V11.7273H65.1374V16.5391H65.457C66.0607 14.9529 67.0728 13.6982 68.4933 12.7749C69.9137 11.8397 71.636 11.3722 73.6602 11.3722C75.5541 11.3722 77.2054 11.7865 78.614 12.6151C80.0226 13.4437 81.1175 14.6274 81.8988 16.1662C82.68 17.6932 83.0707 19.5161 83.0707 21.6349V39H75.5067V22.9844C75.5186 21.3153 75.0924 20.0133 74.2283 19.0781C73.3642 18.1312 72.1746 17.6577 70.6594 17.6577C69.6415 17.6577 68.7418 17.8767 67.9606 18.3146C67.1912 18.7526 66.5875 19.3918 66.1495 20.2322C65.7234 21.0608 65.5044 22.0611 65.4925 23.233ZM96.8091 39.5149C95.0691 39.5149 93.5184 39.2131 92.1571 38.6094C90.7959 37.9938 89.7187 37.0883 88.9256 35.8928C88.1444 34.6854 87.7537 33.1821 87.7537 31.3828C87.7537 29.8677 88.0319 28.5952 88.5882 27.5653C89.1446 26.5355 89.9022 25.7069 90.861 25.0795C91.8198 24.4522 92.9088 23.9787 94.128 23.6591C95.3591 23.3395 96.6493 23.1146 97.9988 22.9844C99.5849 22.8187 100.863 22.6648 101.834 22.5227C102.805 22.3688 103.509 22.1439 103.947 21.848C104.385 21.5521 104.604 21.1141 104.604 20.5341V20.4276C104.604 19.303 104.249 18.433 103.539 17.8175C102.84 17.2019 101.846 16.8942 100.556 16.8942C99.1943 16.8942 98.1112 17.196 97.3063 17.7997C96.5014 18.3916 95.9687 19.1373 95.7083 20.0369L88.7125 19.4688C89.0676 17.8116 89.766 16.3793 90.8077 15.1719C91.8494 13.9527 93.1929 13.0175 94.8382 12.3665C96.4954 11.7036 98.4131 11.3722 100.591 11.3722C102.106 11.3722 103.556 11.5497 104.941 11.9048C106.338 12.2599 107.575 12.8104 108.652 13.5561C109.741 14.3018 110.599 15.2607 111.227 16.4325C111.854 17.5926 112.168 18.9834 112.168 20.6051V39H104.994V35.218H104.781C104.343 36.0703 103.758 36.822 103.024 37.473C102.29 38.1122 101.408 38.6153 100.378 38.9822C99.3482 39.3374 98.1586 39.5149 96.8091 39.5149ZM98.9753 34.2947C100.088 34.2947 101.07 34.0758 101.923 33.6378C102.775 33.188 103.444 32.5843 103.929 31.8267C104.414 31.0691 104.657 30.2109 104.657 29.2521V26.358C104.42 26.5118 104.095 26.6539 103.681 26.7841C103.278 26.9025 102.822 27.0149 102.313 27.1214C101.804 27.2161 101.295 27.3049 100.786 27.3878C100.277 27.4588 99.8158 27.5239 99.4015 27.5831C98.5137 27.7133 97.7383 27.9205 97.0755 28.2045C96.4126 28.4886 95.8977 28.8733 95.5307 29.3587C95.1638 29.8321 94.9803 30.424 94.9803 31.1342C94.9803 32.1641 95.3532 32.9512 96.0989 33.4957C96.8565 34.0284 97.8153 34.2947 98.9753 34.2947ZM140.728 19.5043L133.803 19.9304C133.685 19.3385 133.43 18.8059 133.04 18.3324C132.649 17.8471 132.134 17.4624 131.495 17.1783C130.867 16.8823 130.116 16.7344 129.24 16.7344C128.068 16.7344 127.08 16.983 126.275 17.4801C125.47 17.9654 125.067 18.6165 125.067 19.4332C125.067 20.0843 125.328 20.6347 125.849 21.0845C126.369 21.5343 127.263 21.8954 128.53 22.1676L133.466 23.1619C136.117 23.7064 138.094 24.5824 139.396 25.7898C140.698 26.9972 141.349 28.5833 141.349 30.5483C141.349 32.3357 140.823 33.9041 139.769 35.2536C138.727 36.603 137.295 37.6565 135.472 38.4141C133.661 39.1598 131.572 39.5327 129.204 39.5327C125.594 39.5327 122.718 38.781 120.575 37.2777C118.444 35.7625 117.196 33.7029 116.829 31.0987L124.268 30.7081C124.493 31.8089 125.038 32.6494 125.902 33.2294C126.766 33.7976 127.873 34.0817 129.222 34.0817C130.548 34.0817 131.613 33.8272 132.418 33.3182C133.235 32.7973 133.649 32.1286 133.661 31.3118C133.649 30.6252 133.359 30.063 132.791 29.625C132.223 29.1752 131.347 28.8319 130.163 28.5952L125.44 27.6541C122.777 27.1214 120.794 26.1982 119.492 24.8842C118.202 23.5703 117.557 21.8954 117.557 19.8594C117.557 18.1075 118.03 16.5982 118.977 15.3317C119.936 14.0651 121.279 13.0885 123.008 12.402C124.748 11.7154 126.784 11.3722 129.116 11.3722C132.56 11.3722 135.271 12.1001 137.248 13.5561C139.236 15.0121 140.396 16.9948 140.728 19.5043ZM146.112 39V11.7273H153.676V39H146.112ZM149.912 8.21165C148.787 8.21165 147.823 7.83878 147.018 7.09304C146.225 6.33546 145.828 5.42992 145.828 4.37642C145.828 3.33475 146.225 2.44105 147.018 1.69531C147.823 0.937735 148.787 0.558947 149.912 0.558947C151.036 0.558947 151.995 0.937735 152.788 1.69531C153.593 2.44105 153.996 3.33475 153.996 4.37642C153.996 5.42992 153.593 6.33546 152.788 7.09304C151.995 7.83878 151.036 8.21165 149.912 8.21165ZM159.593 39V34.4901L172.945 17.9595V17.7642H160.055V11.7273H182.054V16.6456L169.519 32.7678V32.9631H182.516V39H159.593ZM199.947 39.5327C197.142 39.5327 194.727 38.9645 192.703 37.8281C190.691 36.6799 189.14 35.0582 188.051 32.9631C186.962 30.8561 186.418 28.3643 186.418 25.4879C186.418 22.6825 186.962 20.2204 188.051 18.1016C189.14 15.9827 190.673 14.3314 192.65 13.1477C194.638 11.964 196.97 11.3722 199.646 11.3722C201.445 11.3722 203.12 11.6622 204.67 12.2422C206.233 12.8104 207.594 13.6686 208.754 14.8168C209.926 15.965 210.838 17.4091 211.489 19.1491C212.14 20.8774 212.465 22.9015 212.465 25.2216V27.299H189.436V22.6115H205.345C205.345 21.5225 205.108 20.5578 204.635 19.7173C204.161 18.8769 203.504 18.2199 202.664 17.7464C201.835 17.2611 200.871 17.0185 199.77 17.0185C198.622 17.0185 197.604 17.2848 196.716 17.8175C195.84 18.3383 195.153 19.0426 194.656 19.9304C194.159 20.8063 193.905 21.7829 193.893 22.8601V27.3168C193.893 28.6662 194.141 29.8321 194.638 30.8146C195.147 31.7971 195.864 32.5547 196.787 33.0874C197.71 33.62 198.805 33.8864 200.072 33.8864C200.912 33.8864 201.682 33.768 202.38 33.5312C203.078 33.2945 203.676 32.9394 204.173 32.4659C204.67 31.9924 205.049 31.4124 205.31 30.7259L212.305 31.1875C211.95 32.8684 211.222 34.3362 210.121 35.5909C209.032 36.8338 207.624 37.8045 205.896 38.5028C204.179 39.1894 202.196 39.5327 199.947 39.5327Z" fill="url(#paint0_linear_3433_791)"/>
<defs>
<linearGradient id="paint0_linear_3433_791" x1="-3" y1="4.5" x2="215" y2="39" gradientUnits="userSpaceOnUse">
<stop stop-color="#FE99B9"/>
<stop offset="1" stop-color="#C391F4"/>
</linearGradient>
</defs>
</svg>
